PathFileType	4	(X/Y/Z)	..\data\2014015\dynamic\2014015_C4_04.trc
DataRate	CameraRate	NumFrames	NumMarkers	Units	OrigDataRate	OrigDataStartFrame	OrigNumFrames
100.000000	100.000000	4	52	mm	100.000000	47	190
Frame#	Time	L_IAS			L_IPS			R_IPS			R_IAS			L_FTC			L_FLE			L_FME			L_FAX			L_TTC			L_FAL			L_TAM			L_FCC			L_FM1			L_FM2			L_FM5			R_FTC			R_FLE			R_FME			R_FAX			R_TTC			R_FAL			R_TAM			R_FCC			R_FM1			R_FM2			R_FM5			CV7			TV10			SXS			SJN			L_SIA			L_SRS			L_SAA			L_SAE			L_HLE			L_HME			L_UOA			L_RSP			L_UHE			L_HM2			L_HM5			R_SIA			R_SRS			R_SAA			R_SAE			R_HLE			R_HME			R_UOA			R_RSP			R_UHE			R_HM2			R_HM5			
		X1	Y1	Z1	X2	Y2	Z2	X3	Y3	Z3	X4	Y4	Z4	X5	Y5	Z5	X6	Y6	Z6	X7	Y7	Z7	X8	Y8	Z8	X9	Y9	Z9	X10	Y10	Z10	X11	Y11	Z11	X12	Y12	Z12	X13	Y13	Z13	X14	Y14	Z14	X15	Y15	Z15	X16	Y16	Z16	X17	Y17	Z17	X18	Y18	Z18	X19	Y19	Z19	X20	Y20	Z20	X21	Y21	Z21	X22	Y22	Z22	X23	Y23	Z23	X24	Y24	Z24	X25	Y25	Z25	X26	Y26	Z26	X27	Y27	Z27	X28	Y28	Z28	X29	Y29	Z29	X30	Y30	Z30	X31	Y31	Z31	X32	Y32	Z32	X33	Y33	Z33	X34	Y34	Z34	X35	Y35	Z35	X36	Y36	Z36	X37	Y37	Z37	X38	Y38	Z38	X39	Y39	Z39	X40	Y40	Z40	X41	Y41	Z41	X42	Y42	Z42	X43	Y43	Z43	X44	Y44	Z44	X45	Y45	Z45	X46	Y46	Z46	X47	Y47	Z47	X48	Y48	Z48	X49	Y49	Z49	X50	Y50	Z50	X51	Y51	Z51	X52	Y52	Z52	

48	0.47	246.8450927734376	828.9136352539065	-384.7544860839845	31.61106491088868	864.3015136718752	-290.8685302734376	32.88298797607423	859.3796386718752	-190.0927276611328	258.8287658691407	835.596374511719	-119.3125686645508	158.0583648681641	761.0988159179689	-434.5697631835939	111.3956832885742	414.2228088378907	-345.9553527832032	135.9910430908203	416.3565063476564	-206.7436523437501	91.32431030273439	359.9723815917969	-344.0754699707032	156.0657196044922	362.8274536132813	-300.7826232910157	32.54256057739259	67.0725784301758	-286.1171569824219	60.09662246704103	82.62430572509767	-202.9699096679688	-6.313157081604006	30.80234909057618	-239.6103210449219	174.15869140625	24.1138038635254	-204.1268920898438	189.8899383544922	35.94754791259766	-259.2680358886719	143.0605163574219	20.83199882507325	-319.0052490234376	199.6653747558594	749.6695556640626	-58.74705505371095	328.3028564453126	435.0127868652345	-95.94181060791017	379.7470397949219	425.9564819335939	-226.1132202148438	335.0450744628907	383.4311828613282	-93.38363647460939	399.1900329589845	389.4298400878907	-143.6512451171875	327.6524047851563	72.49709320068361	-136.3606109619141	370.0524902343751	102.4738235473633	-213.9503326416016	306.1689453125001	31.27522468566895	-188.1123657226563	479.2307434082032	59.44315719604494	-201.9861602783204	479.5684204101564	72.43921661376955	-149.4706268310547	434.4364318847657	47.74094009399415	-108.6758193969727	99.85968780517581	1314.121215820313	-252.3137969970704	24.1081714630127	1121.313720703125	-264.6129760742188	266.9323425292969	1024.142822265625	-252.2219543457032	221.9918670654297	1230.8720703125	-251.3394165039063	29.03065872192384	1150.180419921875	-338.9676818847657	74.3240432739258	1267.155395507813	-336.0309143066407	118.0455856323242	1269.817016601563	-397.3793334960939	182.5797576904297	1255.118896484375	-431.7420043945314	160.8325347900391	990.4219360351565	-503.0113830566407	122.5024490356446	964.8404541015627	-425.9651489257814	121.1696090698242	961.2822265625002	-476.0320434570314	270.8125305175782	800.2639160156252	-470.1119995117189	217.0076599121094	784.456970214844	-525.0102539062501	321.5012817382813	724.3969726562501	-489.7495727539064	237.1298370361329	706.8212890625001	-531.2256469726564	20.33300018310547	1143.54541015625	-156.6786651611328	68.84353637695314	1262	-167.669418334961	98.93965148925784	1257.840454101563	-105.0868606567383	175.3641967773438	1244.015014648438	-75.49161529541017	142.8986968994141	974.6567382812502	-3.370209932327271	92.19239807128908	966.5532836914065	-90.09168243408205	95.1372528076172	957.4392089843752	-32.88302993774415	215.3906707763672	769.992370605469	-32.82572174072266	162.0788726806641	767.8646240234376	24.14271354675294	231.2005004882813	674.7560424804689	-14.57098960876465	144.5108032226563	703.2955322265626	30.60055541992188	
49	0.48	254.2894287109376	827.5974121093752	-385.2724914550782	40.21530532836915	863.3972778320315	-289.2926940917969	42.46191406250001	858.3107910156252	-188.7586975097657	268.3572692871094	833.8831176757815	-119.3121414184571	165.090560913086	760.2905883789064	-434.3220825195314	115.8540115356446	413.7782592773439	-345.5413513183594	140.3143768310547	416.2364501953126	-206.4229125976563	95.19380187988283	359.8244934082032	-343.7230529785157	160.0143432617188	362.0256347656251	-300.3226623535157	32.89937210083009	67.63970184326173	-285.5648193359376	60.59768295288087	83.11547088623048	-202.4469146728516	-6.18556594848633	31.5530071258545	-238.9203338623047	174.3518981933594	23.99434471130371	-204.1787719726563	189.9853820800782	35.84579086303712	-259.2939147949219	142.9209899902344	20.84233283996582	-318.8390808105469	209.0938873291016	747.4338378906251	-58.92618560791017	337.3067626953126	432.7393798828126	-98.94229888916018	387.9022521972657	424.4779663085939	-230.0386352539063	346.0917358398438	381.3006896972657	-96.43493652343753	409.8937377929689	389.5628051757814	-147.1467742919922	356.3017883300782	70.08828735351564	-137.7186279296875	397.0242614746095	102.0961151123047	-215.2267608642579	337.4599914550782	27.59285163879395	-189.4615783691407	508.5533752441407	64.61128997802736	-203.517807006836	508.1997985839845	77.54046630859376	-150.9754486083985	464.5873107910157	50.66031646728517	-110.068603515625	109.2679290771485	1312.806274414063	-252.5038299560547	33.33511352539063	1119.984130859375	-264.6769104003907	276.1203308105469	1022.562438964844	-252.2791442871094	231.2464294433594	1229.28173828125	-251.3955688476563	38.30168914794923	1148.926025390625	-339.0619201660157	83.75962829589845	1265.83447265625	-336.2575073242188	127.4987945556641	1268.450073242188	-397.5613403320314	192.1073760986329	1253.708984375	-431.8294372558595	171.3991088867188	988.8922119140627	-503.0496520996095	132.8135681152344	963.114196777344	-426.1563415527345	131.7689819335938	959.4741821289065	-476.1487121582032	282.1422119140626	799.4136962890627	-469.4047241210939	228.9616394042969	783.291442871094	-524.7225952148439	333.1819458007813	723.5886840820314	-488.4020080566407	249.3086242675782	705.7744140625001	-530.7639160156251	29.43017578125001	1142.09375	-156.811508178711	77.99857330322267	1260.561157226563	-167.9972076416016	107.9352340698242	1256.360473632813	-105.3661499023438	184.2262878417969	1242.491821289063	-75.56947326660158	151.0738677978516	973.0164794921877	-3.63269853591919	100.8966903686524	965.0269165039065	-90.61218261718751	103.5249786376953	955.7908325195315	-33.39435958862305	223.6250915527344	768.6534423828127	-33.34411621093751	170.5481872558594	766.2514648437501	23.55289459228516	239.334213256836	673.0325927734376	-15.28548812866211	152.992172241211	701.7319946289064	29.95654106140137	
50	0.49	261.8161010742188	826.2525024414065	-385.7421264648439	48.88780975341798	862.4121093750002	-287.7092285156251	52.04413986206056	857.1965942382815	-187.4560546875	277.9046630859376	832.0739746093752	-119.2477493286133	172.2476959228516	759.4338378906251	-434.0361328125001	120.5342025756836	413.2820434570314	-345.1542663574219	144.8909759521485	415.9823303222657	-206.1364440917969	99.29289245605472	359.6553039550782	-343.4194946289063	164.1420440673828	361.1689758300782	-299.8944091796876	33.28594207763673	68.24633026123048	-285.1182861328126	61.10433197021486	83.57189178466798	-202.0034637451172	-6.073203086853029	32.38177871704102	-238.3762207031251	174.4927825927735	23.87357330322266	-204.2426910400391	190.0601348876953	35.74730300903321	-259.3048706054688	142.7944946289063	20.82979774475098	-318.6932067871094	218.4324035644532	745.0079956054689	-59.13851165771486	345.9703369140626	430.2565917968751	-101.8076400756836	395.7865295410157	422.7225952148439	-233.8816223144532	356.6936950683594	379.0902709960938	-99.375846862793	420.1704406738282	389.5486145019532	-150.5123901367188	384.0767822265626	68.6036834716797	-139.1868438720703	423.1270751953126	102.4946517944336	-216.6057891845704	367.8540039062501	25.06291961669923	-190.9869537353516	536.7086181640626	70.38986206054689	-204.9734039306641	535.6160888671876	83.16653442382814	-152.40966796875	493.5249633789064	54.26974868774415	-111.4768371582032	118.7203521728516	1311.410766601563	-252.6764373779297	42.60898590087891	1118.581665039063	-264.6921997070313	285.3611450195313	1020.895690917969	-252.3013610839844	240.5552215576172	1227.600341796875	-251.4218139648438	47.62135314941407	1147.583251953125	-339.1246948242188	93.24768829345705	1264.427124023438	-336.4668579101563	137.0055847167969	1266.988403320313	-397.7270507812501	201.6994781494141	1252.191284179688	-431.8936157226564	182.0064086914063	987.231140136719	-502.9699096679689	143.1954498291016	961.2930297851565	-426.2053833007814	142.4138946533203	957.5777587890627	-476.1237792968751	293.3710632324219	798.3300781250002	-468.6182250976564	240.7588500976563	781.9660644531252	-524.3402099609376	344.6481018066407	722.4944458007814	-487.0415954589845	261.2474975585938	704.5820922851564	-530.2823486328126	38.5828971862793	1140.562622070313	-156.8966217041016	87.21104431152345	1259.042114257813	-168.2989807128907	116.9817581176758	1254.809936523438	-105.6211395263672	193.1372528076172	1240.9072265625	-75.6139373779297	159.2786865234375	971.2847900390627	-3.86915421485901	109.6626129150391	963.4273681640627	-91.1217498779297	111.9602813720703	954.0615844726565	-33.88779067993165	232.0140380859376	767.2386474609376	-33.85547256469727	179.09228515625	764.5553588867189	22.93058776855469	247.5906677246094	671.2576293945314	-16.02297592163086	161.551498413086	700.0803833007814	29.22727584838868	
51	0.5	269.4837341308594	824.871520996094	-386.1563415527345	57.63783645629884	861.358825683594	-286.1363220214844	61.61776733398439	856.0351562500002	-186.1863555908203	287.4841918945313	830.1900634765627	-119.153076171875	179.5592041015625	758.5357055664064	-433.7171630859376	125.4117050170899	412.7572021484376	-344.8222351074219	149.7689666748047	415.5655517578126	-205.9199523925782	103.5957260131836	359.4814453125001	-343.1853332519532	168.4311065673828	360.2646789550782	-299.5526733398438	33.70635986328126	68.9004592895508	-284.8001098632813	61.62166976928712	84.0181350708008	-201.6701354980469	-5.972633838653565	33.30958938598634	-238.0043029785157	174.5757293701172	23.76412391662598	-204.3257293701172	190.114974975586	35.65561676025391	-259.3066101074219	142.6815643310547	20.79174232482911	-318.5777893066407	227.7119140625001	742.4563598632814	-59.36222076416017	354.3416442871094	427.6239624023439	-104.5097122192383	403.4522705078126	420.7781372070314	-237.5935974121094	366.9057006835938	376.8493957519532	-102.1775054931641	430.0789794921876	389.4338684082032	-153.7200469970703	410.8345336914064	67.96572113037111	-140.7558746337891	448.2474060058595	103.5928268432617	-218.0823822021485	397.1597290039064	23.58871269226075	-192.6773834228516	563.5964355468751	76.64671325683595	-206.3313140869141	561.7235717773439	89.19951629638673	-153.7476196289063	521.1292724609376	58.44615554809572	-112.8841781616211	128.2304840087891	1309.955322265625	-252.8298645019532	51.93312454223634	1117.1318359375	-264.6593933105469	294.6544494628907	1019.160339355469	-252.2885131835938	249.9280395507813	1225.847045898438	-251.4165344238282	56.99680328369142	1146.173217773438	-339.1548767089844	102.7990264892578	1262.952514648438	-336.6549072265626	146.5766143798828	1265.448974609375	-397.8742980957032	211.3655395507813	1250.581420898438	-431.933563232422	192.6325225830079	985.4536743164065	-502.7690734863282	153.6431274414063	959.3945312500002	-426.1015014648439	153.0892486572266	955.6089477539065	-475.9474487304689	304.4984130859376	797.0379638671877	-467.7640991210939	252.3858489990235	780.4910278320315	-523.8505859375001	355.9110412597657	721.1357421875001	-485.6900024414064	272.9345092773438	703.2521972656251	-529.7551879882814	47.80109786987305	1138.980834960938	-156.9322814941407	96.49588775634768	1257.468872070313	-168.5682830810547	126.0966949462891	1253.211791992188	-105.8460159301758	202.1171417236329	1239.277465820313	-75.62557220458986	167.550521850586	969.4817504882815	-4.077830314636231	118.4957504272461	961.7752685546877	-91.60478973388673	120.4643936157227	952.2761230468752	-34.35189437866212	240.5802764892579	765.7603759765626	-34.35014343261719	187.717758178711	762.7937011718751	22.28073310852051	256.0055541992188	669.4603881835939	-16.76732063293457	170.1912384033203	698.3554077148439	28.41200637817384	
